<svg width="100" height="51" viewBox="0 0 100 51" fill="none" xmlns="http://www.w3.org/2000/svg">
<path d="M13.32 39.56C9.98667 39.56 7.33333 38.6 5.36 36.68C3.38667 34.7333 2.4 31.9067 2.4 28.2V21.8C2.4 18.0933 3.38667 15.28 5.36 13.36C7.33333 11.4133 9.98667 10.44 13.32 10.44C16.6267 10.44 19.16 11.36 20.92 13.2C22.7067 15.04 23.6 17.56 23.6 20.76V20.96H20.28V20.64C20.28 18.5333 19.7067 16.8133 18.56 15.48C17.44 14.12 15.6933 13.44 13.32 13.44C10.9467 13.44 9.09333 14.1733 7.76 15.64C6.42667 17.08 5.76 19.1067 5.76 21.72V28.28C5.76 30.8933 6.42667 32.9333 7.76 34.4C9.09333 35.84 10.9467 36.56 13.32 36.56C15.6933 36.56 17.44 35.8933 18.56 34.56C19.7067 33.2 20.28 31.4667 20.28 29.36V28.72H23.6V29.24C23.6 32.44 22.7067 34.96 20.92 36.8C19.16 38.64 16.6267 39.56 13.32 39.56ZM28.8641 39V11H39.5841C41.2641 11 42.7574 11.3333 44.0641 12C45.3974 12.64 46.4507 13.56 47.2241 14.76C47.9974 15.96 48.3841 17.4133 48.3841 19.12V19.64C48.3841 21.32 47.9841 22.7733 47.1841 24C46.4107 25.2 45.3574 26.12 44.0241 26.76C42.6907 27.4 41.2107 27.72 39.5841 27.72H32.2241V39H28.8641ZM32.2241 24.68H39.2241C41.0107 24.68 42.4241 24.24 43.4641 23.36C44.5041 22.4533 45.0241 21.1867 45.0241 19.56V19.16C45.0241 17.5333 44.5041 16.28 43.4641 15.4C42.4507 14.4933 41.0374 14.04 39.2241 14.04H32.2241V24.68ZM52.8875 39V11H64.2075C65.9408 11 67.4608 11.3067 68.7675 11.92C70.1008 12.5067 71.1408 13.36 71.8875 14.48C72.6342 15.5733 73.0075 16.8933 73.0075 18.44V18.88C73.0075 20.72 72.5675 22.1733 71.6875 23.24C70.8075 24.3067 69.7675 25.0267 68.5675 25.4V25.96C69.5275 25.9867 70.3142 26.3067 70.9275 26.92C71.5675 27.5067 71.8875 28.4 71.8875 29.6V39H68.5675V30C68.5675 29.2 68.3408 28.5867 67.8875 28.16C67.4608 27.7333 66.8075 27.52 65.9275 27.52H56.2475V39H52.8875ZM56.2475 24.48H63.8875C65.7275 24.48 67.1408 24.04 68.1275 23.16C69.1408 22.2533 69.6475 21 69.6475 19.4V19.12C69.6475 17.52 69.1542 16.28 68.1675 15.4C67.1808 14.4933 65.7542 14.04 63.8875 14.04H56.2475V24.48ZM87.2819 39.56C85.3085 39.56 83.5619 39.1467 82.0419 38.32C80.5485 37.4933 79.3752 36.3333 78.5219 34.84C77.6952 33.32 77.2819 31.5333 77.2819 29.48V28.96C77.2819 26.9333 77.6952 25.16 78.5219 23.64C79.3752 22.12 80.5485 20.9467 82.0419 20.12C83.5619 19.2933 85.3085 18.88 87.2819 18.88C89.2552 18.88 90.9885 19.2933 92.4819 20.12C94.0019 20.9467 95.1752 22.12 96.0019 23.64C96.8552 25.16 97.2819 26.9333 97.2819 28.96V29.48C97.2819 31.5333 96.8552 33.32 96.0019 34.84C95.1752 36.3333 94.0019 37.4933 92.4819 38.32C90.9885 39.1467 89.2552 39.56 87.2819 39.56ZM87.2819 36.72C89.3619 36.72 91.0152 36.0667 92.2419 34.76C93.4952 33.4267 94.1219 31.64 94.1219 29.4V29.04C94.1219 26.8 93.4952 25.0267 92.2419 23.72C91.0152 22.3867 89.3619 21.72 87.2819 21.72C85.2285 21.72 83.5752 22.3867 82.3219 23.72C81.0685 25.0267 80.4419 26.8 80.4419 29.04V29.4C80.4419 31.64 81.0685 33.4267 82.3219 34.76C83.5752 36.0667 85.2285 36.72 87.2819 36.72Z" fill="black"/>
</svg>
